<svg width="119" height="29" viewBox="0 0 119 29" fill="none" xmlns="http://www.w3.org/2000/svg">
<path d="M24.3452 2.33789C24.7085 1.5293 24.9663 1.125 25.1187 1.125H25.2065C25.3823 1.125 25.7397 1.3125 26.2788 1.6875C26.8179 2.0625 27.0874 2.41406 27.0874 2.74219C27.0874 3.19922 25.5874 6.73828 22.5874 13.3594C19.5874 19.9805 17.8647 23.6953 17.4194 24.5039C16.9858 25.3008 16.687 25.834 16.5229 26.1035C16.3589 26.373 16.1362 26.6719 15.855 27C15.3511 27.6211 14.7241 27.9316 13.9741 27.9316C13.6694 27.9316 13.3999 27.9668 13.1655 28.0371C12.9312 28.1191 12.7905 28.1602 12.7437 28.1602C12.3687 28.1602 12.1812 28.0723 12.1812 27.8965C12.1812 27.8613 12.228 27.7148 12.3218 27.457C12.4272 27.2109 13.769 24.3691 16.3472 18.9316C13.5933 18.8262 11.1733 18.7441 9.0874 18.6855C7.0835 21.2051 5.26709 23.8418 3.63818 26.5957C3.43896 26.9824 3.25146 27.252 3.07568 27.4043C2.8999 27.5684 2.65967 27.6504 2.35498 27.6504C2.05029 27.6504 1.72217 27.4922 1.37061 27.1758C1.01904 26.8711 0.843262 26.5137 0.843262 26.1035C0.843262 24.9316 2.35498 22.4238 5.37842 18.5801C3.96045 18.5801 3.05811 18.6152 2.67139 18.6855C2.29639 18.7559 2.05615 18.791 1.95068 18.791C1.63428 18.791 1.47607 18.5273 1.47607 18C1.47607 17.4609 1.78662 16.9922 2.40771 16.5938C3.04053 16.1836 3.88428 15.9785 4.93896 15.9785C5.021 15.9785 5.16748 15.9727 5.37842 15.9609C6.10498 15.9258 6.84912 15.8965 7.61084 15.873C10.1655 12.873 12.8374 10.0898 15.6265 7.52344C18.4155 4.95703 20.8296 3.1582 22.8687 2.12695C23.1968 1.96289 23.4546 1.88672 23.6421 1.89844C23.8413 1.89844 24.0757 2.04492 24.3452 2.33789ZM23.1147 4.81641C18.8374 8.0625 14.9292 11.748 11.3901 15.873C13.4644 15.9199 15.562 16.0078 17.6831 16.1367C19.8159 11.6484 21.6265 7.875 23.1147 4.81641ZM36.5093 1.91602C34.0366 5.63086 31.6284 9.51562 29.2847 13.5703C29.8237 13.2891 30.4272 13.0898 31.0952 12.9727C31.7749 12.8438 32.2495 12.7793 32.519 12.7793C32.8003 12.7793 33.0405 12.791 33.2397 12.8145C33.439 12.8262 33.6909 12.8906 33.9956 13.0078C34.312 13.1133 34.5815 13.2656 34.8042 13.4648C35.3433 13.9453 35.6128 14.625 35.6128 15.5039C35.6128 16.3828 35.3726 17.3496 34.8921 18.4043C34.4233 19.4473 33.7788 20.4961 32.9585 21.5508C32.1499 22.6055 31.2593 23.5898 30.2866 24.5039C29.3257 25.4062 28.2886 26.1445 27.1753 26.7188C26.062 27.293 25.0249 27.5801 24.064 27.5801C23.6187 27.5801 23.103 27.293 22.5171 26.7188C21.9429 26.1445 21.6558 25.3887 21.6558 24.4512C21.6558 23.5137 22.0601 22.0605 22.8687 20.0918C23.6772 18.123 24.6558 16.125 25.8042 14.0977C26.9644 12.0586 28.1421 10.0723 29.3374 8.13867C30.5444 6.20508 31.5698 4.62305 32.4136 3.39258C33.2573 2.16211 33.7729 1.45313 33.9604 1.26562C34.1479 1.07812 34.4878 0.919922 34.98 0.791016C35.4839 0.662109 35.9175 0.603516 36.2808 0.615234C36.644 0.615234 36.8257 0.779297 36.8257 1.10742C36.8257 1.31836 36.7202 1.58789 36.5093 1.91602ZM31.7632 18.791C32.2437 17.9473 32.4839 17.1797 32.4839 16.4883C32.4839 15.7969 32.2612 15.4512 31.8159 15.4512C31.3823 15.4512 30.7085 15.6445 29.7944 16.0312C28.8921 16.4062 28.3765 16.5938 28.2476 16.5938C28.1187 16.5938 27.9487 16.4883 27.7378 16.2773C25.4526 20.3906 24.3101 23.0156 24.3101 24.1523C24.3101 24.6797 24.48 24.9434 24.8198 24.9434C25.6284 24.9434 26.7944 24.2695 28.3179 22.9219C29.8413 21.5625 30.9897 20.1855 31.7632 18.791ZM47.4077 13.6055C47.7593 13.6055 48.1167 13.7637 48.48 14.0801C48.855 14.3965 49.0425 14.8828 49.0425 15.5391C49.0425 16.1836 48.814 17.0273 48.3569 18.0703C47.8999 19.1016 47.2729 20.1562 46.4761 21.2344C45.6792 22.3008 44.8003 23.3086 43.8394 24.2578C42.8901 25.1953 41.8589 25.9688 40.7456 26.5781C39.644 27.1758 38.6421 27.4746 37.7397 27.4746C36.8374 27.4746 36.1108 27.1934 35.5601 26.6309C35.021 26.0566 34.7515 25.2656 34.7515 24.2578C34.7515 23.2383 34.9976 22.1133 35.4897 20.8828C35.9937 19.6523 36.6382 18.5684 37.4233 17.6309C38.2085 16.6816 39.0581 15.832 39.9722 15.082C41.8823 13.5469 43.5581 12.7793 44.9995 12.7793C45.644 12.7793 46.1304 12.9375 46.4585 13.2539C46.5757 13.3594 46.6343 13.4531 46.6343 13.5352V13.6406C46.7983 13.6172 47.0562 13.6055 47.4077 13.6055ZM45.6323 15.9434H45.5093C45.0991 15.9434 44.894 15.6445 44.894 15.0469C44.0386 15.3281 43.1421 15.8203 42.2046 16.5234C41.2671 17.2266 40.4292 18.0586 39.6909 19.0195C38.1909 20.9414 37.4292 22.5645 37.4058 23.8887C37.4058 24.5449 37.646 24.873 38.1265 24.873C38.6069 24.873 39.3218 24.5566 40.271 23.9238C41.2202 23.291 42.1577 22.3887 43.0835 21.2168C44.021 20.0449 44.7183 19.0312 45.1753 18.1758C45.644 17.3086 45.8784 16.7227 45.8784 16.418C45.8784 16.1016 45.7964 15.9434 45.6323 15.9434ZM63.5444 21.4805C63.7671 21.4805 63.9019 21.6504 63.9487 21.9902C63.9956 22.3301 64.019 22.6816 64.019 23.0449C64.019 23.4082 63.9839 23.6602 63.9136 23.8008C63.5737 24.457 62.8296 25.2598 61.6812 26.209C60.5327 27.1465 59.4429 27.6152 58.4116 27.6152C57.7788 27.6152 57.1929 27.4219 56.6538 27.0352C56.1147 26.6602 55.8452 25.998 55.8452 25.0488C55.8452 24.0996 56.0972 23.168 56.6011 22.2539C53.6948 25.8984 51.4155 27.7207 49.7632 27.7207C49.1069 27.7207 48.5737 27.4863 48.1636 27.0176C47.7651 26.5488 47.5659 26.0684 47.5659 25.5762C47.5659 25.0723 47.6362 24.5566 47.7769 24.0293C47.9175 23.4902 48.064 23.0098 48.2163 22.5879C48.3804 22.166 48.6147 21.6445 48.9194 21.0234C49.2358 20.4023 49.4702 19.9512 49.6226 19.6699C49.7749 19.3887 50.0151 18.9668 50.3433 18.4043C50.6831 17.8301 51.1226 17.0625 51.6616 16.1016C52.2124 15.1406 52.6636 14.4316 53.0151 13.9746C53.3784 13.5059 53.73 13.2715 54.0698 13.2715C54.4097 13.2598 54.7085 13.3945 54.9663 13.6758C55.2241 13.957 55.353 14.1855 55.353 14.3613C55.353 14.5371 54.9604 15.3281 54.1753 16.7344C51.855 20.9297 50.6948 23.373 50.6948 24.0645C50.6948 24.2402 50.7593 24.3281 50.8882 24.3281C51.4507 24.3281 52.8511 23.1094 55.0894 20.6719C57.3276 18.2344 58.6226 16.6758 58.9741 15.9961C59.3257 15.3047 59.6655 14.7246 59.9937 14.2559C60.3335 13.7871 60.5854 13.5 60.7495 13.3945C61.2534 13.0664 61.9038 12.8906 62.7007 12.8672C62.8296 12.8672 62.9292 12.873 62.9995 12.8848C63.0698 12.8965 63.1519 12.9961 63.2456 13.1836C63.3394 13.3711 63.3862 13.5176 63.3862 13.623C63.2808 13.9512 62.812 14.8242 61.98 16.2422C61.1597 17.6602 60.7026 18.4629 60.6089 18.6504C59.2261 21.5098 58.5347 23.373 58.5347 24.2402C58.5347 24.7324 58.7222 24.9785 59.0972 24.9785C59.7769 24.8848 60.5972 24.3398 61.5581 23.3438C61.9097 22.9805 62.2554 22.6113 62.5952 22.2363C62.9468 21.8613 63.1636 21.6445 63.2456 21.5859C63.3276 21.5156 63.4272 21.4805 63.5444 21.4805ZM74.9878 4.35938L75.7085 4.53516C75.814 4.53516 75.9077 4.58789 75.9897 4.69336C76.0718 4.79883 76.1128 4.89844 76.1128 4.99219C76.1128 5.08594 75.9897 5.33789 75.7437 5.74805C75.4976 6.1582 75.2046 6.62695 74.8647 7.1543C74.5366 7.66992 74.3608 7.95117 74.3374 7.99805C75.2515 7.92773 75.896 7.89258 76.271 7.89258C76.6577 7.89258 76.9214 7.92188 77.062 7.98047C77.2026 8.02734 77.3608 8.17383 77.5366 8.41992C77.7241 8.6543 77.894 8.83594 78.0464 8.96484C78.1987 9.08203 78.2749 9.26367 78.2749 9.50977C78.2749 9.75586 78.1226 9.9668 77.8179 10.1426C77.5249 10.3066 77.2085 10.4062 76.8687 10.4414C74.1499 10.7109 72.6499 10.8516 72.3687 10.8633C71.4194 12.3164 70.0894 14.584 68.3784 17.666C66.6792 20.7363 65.7769 22.6582 65.6714 23.4316C65.6245 23.7832 65.6011 24.0703 65.6011 24.293C65.6011 24.75 65.8413 24.9785 66.3218 24.9785C66.8022 24.9785 67.3354 24.7969 67.9214 24.4336C68.5073 24.0586 69.0464 23.6543 69.5386 23.2207C70.8511 22.0488 71.5542 21.4629 71.6479 21.4629C71.9526 21.4629 72.105 21.9902 72.105 23.0449C72.105 23.6191 71.8413 24.1348 71.314 24.5918C70.1304 25.6113 69.1343 26.3789 68.3257 26.8945C67.5171 27.4102 66.7085 27.668 65.8999 27.668C65.7241 27.668 65.5601 27.6504 65.4077 27.6152C64.4702 27.4395 63.7788 27.0996 63.3335 26.5957C62.8999 26.0801 62.6831 25.3887 62.6831 24.5215C62.6948 23.6543 62.9526 22.6055 63.4565 21.375C63.9722 20.1328 64.6167 18.8145 65.3901 17.4199C66.6558 15.1465 67.9214 13.0137 69.187 11.0215L68.519 11.1094C67.1597 11.2617 66.3687 11.3379 66.146 11.3379H65.9878C65.6479 11.3379 65.3198 11.2734 65.0034 11.1445C64.687 11.0039 64.5288 10.834 64.5288 10.6348C64.5288 10.4355 64.6108 10.2422 64.7749 10.0547C64.9507 9.86719 65.0562 9.7207 65.0913 9.61523C65.1733 9.35742 65.478 9.07031 66.0054 8.75391C66.5444 8.4375 66.9487 8.27344 67.2183 8.26172C67.4878 8.23828 67.7456 8.2207 67.9917 8.20898C68.2495 8.19727 68.5308 8.18555 68.8354 8.17383C69.1519 8.16211 69.3921 8.15039 69.5562 8.13867L71.1382 8.06836C72.1226 6.5918 72.7964 5.64258 73.1597 5.2207C73.5347 4.79883 73.7515 4.57031 73.8101 4.53516C73.8687 4.48828 73.9858 4.46484 74.1616 4.46484L74.9878 4.35938ZM104.748 17.2793C105.064 17.2793 105.222 17.6953 105.222 18.5273C105.222 19.3594 105.169 19.916 105.064 20.1973C104.712 21.0996 103.892 22.1133 102.603 23.2383C101.326 24.3516 99.9194 25.3008 98.3843 26.0859C96.8608 26.8594 95.6069 27.2461 94.6226 27.2461C94.1538 27.2461 93.7554 27.0645 93.4272 26.7012C93.1108 26.3379 92.9526 25.8633 92.9526 25.2773C92.9526 24.2344 93.5503 22.6406 94.7456 20.4961C95.9409 18.3516 97.3882 16.1133 99.0874 13.7812C96.2632 17.0625 94.2593 19.2773 93.0757 20.4258C91.9038 21.5742 90.855 22.5586 89.9292 23.3789C89.0034 24.1875 88.1714 24.8379 87.4331 25.3301C85.6753 26.4902 84.2808 27.0703 83.2495 27.0703C82.2183 27.0703 81.4858 26.7891 81.0522 26.2266C80.6187 25.6523 80.4019 25.0195 80.4019 24.3281C80.4019 22.3008 81.5854 19.4531 83.9526 15.7852C86.3315 12.1055 88.5171 9.09961 90.5093 6.76758C88.8218 8.25586 87.6558 9 87.0112 9C86.3784 9 85.9038 8.80664 85.5874 8.41992C85.271 8.02148 85.1128 7.57617 85.1128 7.08398C85.1128 6.58008 85.3472 6.11133 85.8159 5.67773C86.2847 5.23242 86.6245 5.00977 86.8354 5.00977C87.0581 5.00977 87.1694 5.02734 87.1694 5.0625C87.1694 5.09766 87.0815 5.22656 86.9058 5.44922C86.73 5.66016 86.6421 5.80664 86.6421 5.88867C86.6421 5.9707 86.7183 6.01172 86.8706 6.01172C87.3276 6.01172 88.3237 5.54883 89.8589 4.62305C91.394 3.69727 92.7065 2.79492 93.7964 1.91602C94.0894 1.66992 94.4233 1.54688 94.7983 1.54688C95.1851 1.54688 95.5542 1.64062 95.9058 1.82812C95.9292 1.76953 96.0288 1.78125 96.2046 1.86328C96.3804 1.94531 96.5562 2.07422 96.7319 2.25C96.9077 2.42578 96.9956 2.58984 96.9956 2.74219C96.9956 2.89453 96.9487 3.03516 96.855 3.16406C91.98 9.46875 88.9155 13.5762 87.6616 15.4863C85.1187 19.3652 83.8472 21.8848 83.8472 23.0449C83.8472 23.4551 84.0171 23.6602 84.3569 23.6602C84.7085 23.6602 85.687 23.0039 87.2925 21.6914C91.6987 18.1055 97.8745 11.7773 105.82 2.70703C106.136 2.34375 106.435 2.17383 106.716 2.19727H106.875C106.921 2.19727 107.05 2.17969 107.261 2.14453C107.484 2.09766 107.841 2.07422 108.333 2.07422C109.505 2.07422 110.091 2.29102 110.091 2.72461C110.091 2.91211 109.916 3.24023 109.564 3.70898C109.224 4.17773 108.509 5.18555 107.419 6.73242C106.33 8.2793 104.97 10.2422 103.341 12.6211C101.724 15 100.324 17.1855 99.1401 19.1777C97.9683 21.1699 97.3823 22.4355 97.3823 22.9746C97.3823 22.9863 97.3999 22.9922 97.4351 22.9922C97.4819 22.9922 97.6694 22.9102 97.9976 22.7461C99.0054 22.2188 100.183 21.3809 101.531 20.2324C102.89 19.084 103.746 18.3047 104.097 17.8945C104.46 17.4844 104.677 17.2793 104.748 17.2793ZM106.699 23.4844L106.681 23.7656C106.681 24.0586 106.792 24.3105 107.015 24.5215C107.238 24.7324 107.443 24.8379 107.63 24.8379C109.037 24.8379 110.279 24.627 111.357 24.2051C112.447 23.7832 112.992 23.3613 112.992 22.9395C112.992 22.7402 112.792 22.5703 112.394 22.4297C112.007 22.2773 111.345 22.0957 110.408 21.8848C109.482 21.6621 108.808 21.4922 108.386 21.375C107.964 21.2461 107.63 21.1289 107.384 21.0234C107.138 20.918 106.886 20.7715 106.628 20.584C106.078 20.1973 105.802 19.623 105.802 18.8613C105.802 18.0879 106.083 17.3262 106.646 16.5762C107.22 15.8145 107.935 15.1641 108.791 14.625C109.646 14.0859 110.566 13.6113 111.55 13.2012C113.496 12.3926 115.13 11.9883 116.455 11.9883C117.755 11.9883 118.558 12.2695 118.863 12.832C118.957 13.0312 119.003 13.2539 119.003 13.5V13.623C119.003 14.2441 118.869 14.7305 118.599 15.082C118.341 15.4336 117.925 15.75 117.351 16.0312C116.789 16.3125 116.337 16.4531 115.998 16.4531C115.669 16.4531 115.458 16.4297 115.365 16.3828C115.283 16.3359 115.212 16.2773 115.154 16.207C115.095 16.125 115.019 16.0664 114.925 16.0312C114.843 15.9961 114.802 15.9082 114.802 15.7676C114.802 15.627 114.861 15.4863 114.978 15.3457C115.095 15.1934 115.177 15.0352 115.224 14.8711C114.451 14.9062 113.642 15.0879 112.798 15.416C111.955 15.7324 111.228 16.0898 110.619 16.4883C110.021 16.8867 109.523 17.2676 109.125 17.6309C108.726 17.9941 108.527 18.2637 108.527 18.4395C108.527 18.6035 108.796 18.7383 109.335 18.8438C111.761 19.3242 113.355 19.7402 114.117 20.0918C114.878 20.4434 115.406 20.8418 115.699 21.2871C115.992 21.7324 116.138 22.1367 116.138 22.5C116.138 23.25 115.839 23.959 115.242 24.627C114.644 25.2949 113.906 25.8398 113.027 26.2617C111.14 27.1875 109.494 27.6504 108.087 27.6504C106.693 27.6504 105.726 27.4336 105.187 27C104.66 26.5781 104.396 26.0742 104.396 25.4883C104.396 24.9023 104.542 24.3633 104.835 23.8711C105.14 23.3672 105.527 23.1152 105.996 23.1152C106.464 23.1152 106.699 23.2383 106.699 23.4844Z" fill="#7EB693"/>
</svg>
