<svg width="116" height="27" viewBox="0 0 116 27" fill="none" xmlns="http://www.w3.org/2000/svg">
<path d="M13.1406 23.8027C10.9609 25.748 8.35938 26.7207 5.33594 26.7207C3.50781 26.7207 2.20117 26.334 1.41602 25.5605C0.970703 25.1387 0.748047 24.3945 0.748047 23.3281C0.748047 21.6875 1.99609 20.627 4.49219 20.1465C5.27734 19.9941 6.2207 19.918 7.32227 19.918C8.42383 19.918 9.92969 20.123 11.8398 20.5332C12.8594 19.3965 14.0723 17.7266 15.4785 15.5234C16.8965 13.3086 18.0156 11.6035 18.8359 10.4082C19.6562 9.21289 20.5879 7.99414 21.6309 6.75195C22.6738 5.49805 23.7637 4.36719 24.9004 3.35938C27.209 1.29688 29.4941 0.265625 31.7559 0.265625C32.7637 0.265625 33.4902 0.523438 33.9355 1.03906C34.3809 1.54297 34.6035 2.14648 34.6035 2.84961C34.6035 3.54102 34.2812 4.34961 33.6367 5.27539C33.0039 6.20117 32.2656 7.02148 31.4219 7.73633C30.5898 8.45117 29.7637 9.06055 28.9434 9.56445C28.1348 10.0566 27.4961 10.3027 27.0273 10.3027C26.5586 10.3027 26.1543 10.1035 25.8145 9.70508C25.4746 9.30664 25.3047 8.92578 25.3047 8.5625C25.3047 8.1875 25.3516 7.92969 25.4453 7.78906C25.5508 7.63672 25.6562 7.56055 25.7617 7.56055C25.8672 7.56055 25.9316 7.625 25.9551 7.75391C26.3301 7.63672 26.9277 7.27344 27.748 6.66406C28.5801 6.04297 29.3359 5.39844 30.0156 4.73047C30.6953 4.0625 31.0352 3.64648 31.0352 3.48242C31.0352 3.30664 30.9297 3.21875 30.7188 3.21875C30.5195 3.21875 30.2441 3.28906 29.8926 3.42969C29.541 3.57031 29.0723 3.86328 28.4863 4.30859C27.9004 4.74219 27.2676 5.30469 26.5879 5.99609C24.9473 7.63672 23.1191 9.96289 21.1035 12.9746C20.6348 13.6543 19.9727 14.6445 19.1172 15.9453C17.3711 18.582 16.123 20.3867 15.373 21.3594C21.3848 22.9414 25.6797 23.7324 28.2578 23.7324C29.4531 23.7324 30.291 23.5801 30.7715 23.2754C30.9473 23.1699 31.0645 23.1172 31.123 23.1172C31.1816 23.1172 31.2109 23.1641 31.2109 23.2578C31.2109 23.3516 31.1582 23.4922 31.0527 23.6797C30.9473 23.8672 30.6836 24.2656 30.2617 24.875C29.8516 25.4844 29.5469 25.8477 29.3477 25.9648C28.7734 26.3047 27.7949 26.4746 26.4121 26.4746C25.041 26.4746 23.7285 26.375 22.4746 26.1758C21.2324 25.9766 20.2305 25.7832 19.4688 25.5957C18.707 25.3965 17.5762 25.0801 16.0762 24.6465C14.5879 24.2129 13.6094 23.9316 13.1406 23.8027ZM6.72461 22.7305C5.18945 22.7305 4.42188 22.9121 4.42188 23.2754C4.42188 23.416 4.55078 23.5391 4.80859 23.6445C5.07812 23.75 5.39453 23.8027 5.75781 23.8027C6.89453 23.8027 7.99023 23.5039 9.04492 22.9062C8.14258 22.7891 7.36914 22.7305 6.72461 22.7305ZM42.3555 12.6055C42.707 12.6055 43.0645 12.7637 43.4277 13.0801C43.8027 13.3965 43.9902 13.8828 43.9902 14.5391C43.9902 15.1836 43.7617 16.0273 43.3047 17.0703C42.8477 18.1016 42.2207 19.1562 41.4238 20.2344C40.627 21.3008 39.748 22.3086 38.7871 23.2578C37.8379 24.1953 36.8066 24.9688 35.6934 25.5781C34.5918 26.1758 33.5898 26.4746 32.6875 26.4746C31.7852 26.4746 31.0586 26.1934 30.5078 25.6309C29.9688 25.0566 29.6992 24.2656 29.6992 23.2578C29.6992 22.2383 29.9453 21.1133 30.4375 19.8828C30.9414 18.6523 31.5859 17.5684 32.3711 16.6309C33.1562 15.6816 34.0059 14.832 34.9199 14.082C36.8301 12.5469 38.5059 11.7793 39.9473 11.7793C40.5918 11.7793 41.0781 11.9375 41.4062 12.2539C41.5234 12.3594 41.582 12.4531 41.582 12.5352V12.6406C41.7461 12.6172 42.0039 12.6055 42.3555 12.6055ZM40.5801 14.9434H40.457C40.0469 14.9434 39.8418 14.6445 39.8418 14.0469C38.9863 14.3281 38.0898 14.8203 37.1523 15.5234C36.2148 16.2266 35.377 17.0586 34.6387 18.0195C33.1387 19.9414 32.377 21.5645 32.3535 22.8887C32.3535 23.5449 32.5938 23.873 33.0742 23.873C33.5547 23.873 34.2695 23.5566 35.2188 22.9238C36.168 22.291 37.1055 21.3887 38.0312 20.2168C38.9688 19.0449 39.666 18.0312 40.123 17.1758C40.5918 16.3086 40.8262 15.7227 40.8262 15.418C40.8262 15.1016 40.7441 14.9434 40.5801 14.9434ZM55.0293 22.0977C55.6387 21.7109 56.0312 21.4473 56.207 21.3066C56.3828 21.1543 56.5879 20.9785 56.8223 20.7793C57.0566 20.5801 57.25 20.4805 57.4023 20.4805C57.6367 20.4805 57.7539 20.75 57.7539 21.2891C57.7539 21.8164 57.4902 22.3906 56.9629 23.0117C56.4473 23.6211 55.8027 24.1426 55.0293 24.5762C54.2559 24.998 53.4297 25.3672 52.5508 25.6836C50.8047 26.3281 49.3164 26.6504 48.0859 26.6504C46.8672 26.6504 45.7656 26.252 44.7812 25.4551C43.7969 24.6465 43.3047 23.5977 43.3047 22.3086C43.3047 21.0078 43.627 19.7129 44.2715 18.4238C44.916 17.123 45.7422 15.9863 46.75 15.0137C47.7695 14.0293 48.9473 13.2324 50.2832 12.623C51.6309 12.0137 52.9609 11.709 54.2734 11.709C54.9062 11.709 55.4746 11.8906 55.9785 12.2539C56.4824 12.6172 56.7344 13.1152 56.7344 13.748C56.7344 14.3809 56.418 15.1426 55.7852 16.0332C55.1641 16.9121 54.5312 17.3516 53.8867 17.3516C53.1367 17.3516 52.7617 16.9941 52.7617 16.2793C52.7617 16.0918 52.9375 15.7578 53.2891 15.2773C53.6406 14.7969 53.8164 14.4746 53.8164 14.3105C53.8164 14.1348 53.752 14.0469 53.623 14.0469C52.9785 14.0469 52.2871 14.2695 51.5488 14.7148C50.8105 15.1602 50.1367 15.6289 49.5273 16.1211C48.9297 16.6133 48.3613 17.1641 47.8223 17.7734C46.6504 19.0977 46.0645 20.4746 46.0645 21.9043C46.0645 22.4785 46.2461 22.9766 46.6094 23.3984C46.9844 23.8086 47.6055 24.0137 48.4727 24.0137C49.3516 24.0137 50.2305 23.9141 51.1094 23.7148C51.9883 23.5039 52.709 23.2812 53.2715 23.0469C53.8457 22.8008 54.4316 22.4844 55.0293 22.0977ZM70.1641 12.6406C71.0547 12.6406 71.5 12.9453 71.5 13.5547C71.5 13.8828 71.4238 14.123 71.2715 14.2754C71.1191 14.4277 70.791 14.9375 70.2871 15.8047C69.7949 16.6602 69.2441 17.7617 68.6348 19.1094C68.0371 20.4453 67.6504 21.5879 67.4746 22.5371C67.4395 22.6543 67.4219 22.8184 67.4219 23.0293C67.4219 23.6738 67.5977 23.9961 67.9492 23.9961C68.3008 23.9961 68.7168 23.832 69.1973 23.5039C69.6777 23.1641 70.1055 22.8066 70.4805 22.4316C70.8555 22.0449 71.2188 21.6523 71.5703 21.2539C71.9336 20.8555 72.1504 20.627 72.2207 20.5684C72.291 20.5098 72.3965 20.4805 72.5371 20.4805C72.7598 20.4805 72.8945 20.6504 72.9414 20.9902C72.9883 21.3301 73.0117 21.6816 73.0117 22.0449C73.0117 22.4082 72.9766 22.6602 72.9062 22.8008C72.5664 23.4688 71.8164 24.2715 70.6562 25.209C69.5078 26.1465 68.459 26.6152 67.5098 26.6152C66.5723 26.6152 65.8809 26.3281 65.4355 25.7539C64.9902 25.1797 64.7676 24.5469 64.7676 23.8555C64.7676 23.1523 64.8848 22.5371 65.1191 22.0098C64.1465 23.2754 63.0273 24.3477 61.7617 25.2266C60.5078 26.1055 59.4824 26.5449 58.6855 26.5449C57.8887 26.5449 57.2383 26.3047 56.7344 25.8242C56.0898 25.2266 55.7676 24.4004 55.7676 23.3457C55.7676 22.2793 56.002 21.2129 56.4707 20.1465C56.9512 19.0684 57.5781 18.0898 58.3516 17.2109C59.125 16.3203 59.9746 15.5117 60.9004 14.7852C62.8457 13.2617 64.6387 12.5 66.2793 12.5C66.9121 12.5 67.4277 12.6055 67.8262 12.8164C68.2246 13.0273 68.4766 13.291 68.582 13.6074C68.8633 13.1855 69.0977 12.9219 69.2852 12.8164C69.4844 12.6992 69.7773 12.6406 70.1641 12.6406ZM67.8262 14.5918C65.8223 14.5918 63.748 15.7051 61.6035 17.9316C60.8418 18.7285 60.1387 19.6836 59.4941 20.7969C58.8613 21.9102 58.5449 22.6719 58.5449 23.082C58.5449 23.4922 58.6621 23.6973 58.8965 23.6973C59.2246 23.6973 60.1387 23.0527 61.6387 21.7637C63.1387 20.4629 64.1348 19.5078 64.627 18.8984C65.166 18.2188 66.2324 16.7832 67.8262 14.5918ZM83.5059 3.35938L84.2266 3.53516C84.332 3.53516 84.4258 3.58789 84.5078 3.69336C84.5898 3.79883 84.6309 3.89844 84.6309 3.99219C84.6309 4.08594 84.5078 4.33789 84.2617 4.74805C84.0156 5.1582 83.7227 5.62695 83.3828 6.1543C83.0547 6.66992 82.8789 6.95117 82.8555 6.99805C83.7695 6.92773 84.4141 6.89258 84.7891 6.89258C85.1758 6.89258 85.4395 6.92188 85.5801 6.98047C85.7207 7.02734 85.8789 7.17383 86.0547 7.41992C86.2422 7.6543 86.4121 7.83594 86.5645 7.96484C86.7168 8.08203 86.793 8.26367 86.793 8.50977C86.793 8.75586 86.6406 8.9668 86.3359 9.14258C86.043 9.30664 85.7266 9.40625 85.3867 9.44141C82.668 9.71094 81.168 9.85156 80.8867 9.86328C79.9375 11.3164 78.6074 13.584 76.8965 16.666C75.1973 19.7363 74.2949 21.6582 74.1895 22.4316C74.1426 22.7832 74.1191 23.0703 74.1191 23.293C74.1191 23.75 74.3594 23.9785 74.8398 23.9785C75.3203 23.9785 75.8535 23.7969 76.4395 23.4336C77.0254 23.0586 77.5645 22.6543 78.0566 22.2207C79.3691 21.0488 80.0723 20.4629 80.166 20.4629C80.4707 20.4629 80.623 20.9902 80.623 22.0449C80.623 22.6191 80.3594 23.1348 79.832 23.5918C78.6484 24.6113 77.6523 25.3789 76.8438 25.8945C76.0352 26.4102 75.2266 26.668 74.418 26.668C74.2422 26.668 74.0781 26.6504 73.9258 26.6152C72.9883 26.4395 72.2969 26.0996 71.8516 25.5957C71.418 25.0801 71.2012 24.3887 71.2012 23.5215C71.2129 22.6543 71.4707 21.6055 71.9746 20.375C72.4902 19.1328 73.1348 17.8145 73.9082 16.4199C75.1738 14.1465 76.4395 12.0137 77.7051 10.0215L77.0371 10.1094C75.6777 10.2617 74.8867 10.3379 74.6641 10.3379H74.5059C74.166 10.3379 73.8379 10.2734 73.5215 10.1445C73.2051 10.0039 73.0469 9.83398 73.0469 9.63477C73.0469 9.43555 73.1289 9.24219 73.293 9.05469C73.4688 8.86719 73.5742 8.7207 73.6094 8.61523C73.6914 8.35742 73.9961 8.07031 74.5234 7.75391C75.0625 7.4375 75.4668 7.27344 75.7363 7.26172C76.0059 7.23828 76.2637 7.2207 76.5098 7.20898C76.7676 7.19727 77.0488 7.18555 77.3535 7.17383C77.6699 7.16211 77.9102 7.15039 78.0742 7.13867L79.6562 7.06836C80.6406 5.5918 81.3145 4.64258 81.6777 4.2207C82.0527 3.79883 82.2695 3.57031 82.3281 3.53516C82.3867 3.48828 82.5039 3.46484 82.6797 3.46484L83.5059 3.35938ZM90.5898 6.69922C90.5898 7.36719 90.2793 8.04102 89.6582 8.7207C89.0371 9.38867 88.3867 9.72266 87.707 9.72266C87.0391 9.72266 86.7051 9.37109 86.7051 8.66797C86.7051 7.96484 86.998 7.29688 87.584 6.66406C88.1816 6.01953 88.8379 5.69727 89.5527 5.69727C89.8691 5.69727 90.1211 5.78516 90.3086 5.96094C90.4961 6.13672 90.5898 6.38281 90.5898 6.69922ZM87.7422 22.0449C87.7422 22.3965 87.707 22.6484 87.6367 22.8008C87.0625 23.9727 86.1484 24.9219 84.8945 25.6484C83.6406 26.3633 82.5508 26.7207 81.625 26.7207C80.6992 26.7207 79.9023 26.4102 79.2344 25.7891C78.5664 25.168 78.2324 24.5352 78.2324 23.8906C78.2324 23.2461 78.5547 22.3086 79.1992 21.0781C79.8438 19.8477 80.4883 18.7109 81.1328 17.668C81.7773 16.625 82.0996 16.0625 82.0996 15.9805C82.0996 15.8867 81.9766 15.7109 81.7305 15.4531C81.4961 15.1953 81.3789 15.0078 81.3789 14.8906C81.3789 14.7617 81.6191 14.4395 82.0996 13.9238C82.5918 13.3965 83.1836 12.8809 83.875 12.377C84.5781 11.8613 85.1113 11.6035 85.4746 11.6035C85.8496 11.6035 86.1836 11.7676 86.4766 12.0957C86.7695 12.4238 86.916 12.7227 86.916 12.9922C86.916 13.2617 85.5215 15.7988 82.7324 20.6035C82.6973 20.6738 82.5977 20.832 82.4336 21.0781C82.2812 21.3125 82.1582 21.5117 82.0645 21.6758C81.9824 21.8281 81.8828 22.0156 81.7656 22.2383C81.5312 22.707 81.4141 23.0996 81.4141 23.416C81.4141 23.8145 81.6836 24.0137 82.2227 24.0137C82.7617 24.0137 83.3184 23.832 83.8926 23.4688C84.4785 23.0938 84.9824 22.6836 85.4043 22.2383C86.5059 21.0547 87.1328 20.4629 87.2852 20.4629C87.5898 20.4629 87.7422 20.9902 87.7422 22.0449ZM98.3945 12.6055C98.7461 12.6055 99.1035 12.7637 99.4668 13.0801C99.8418 13.3965 100.029 13.8828 100.029 14.5391C100.029 15.1836 99.8008 16.0273 99.3438 17.0703C98.8867 18.1016 98.2598 19.1562 97.4629 20.2344C96.666 21.3008 95.7871 22.3086 94.8262 23.2578C93.877 24.1953 92.8457 24.9688 91.7324 25.5781C90.6309 26.1758 89.6289 26.4746 88.7266 26.4746C87.8242 26.4746 87.0977 26.1934 86.5469 25.6309C86.0078 25.0566 85.7383 24.2656 85.7383 23.2578C85.7383 22.2383 85.9844 21.1133 86.4766 19.8828C86.9805 18.6523 87.625 17.5684 88.4102 16.6309C89.1953 15.6816 90.0449 14.832 90.959 14.082C92.8691 12.5469 94.5449 11.7793 95.9863 11.7793C96.6309 11.7793 97.1172 11.9375 97.4453 12.2539C97.5625 12.3594 97.6211 12.4531 97.6211 12.5352V12.6406C97.7852 12.6172 98.043 12.6055 98.3945 12.6055ZM96.6191 14.9434H96.4961C96.0859 14.9434 95.8809 14.6445 95.8809 14.0469C95.0254 14.3281 94.1289 14.8203 93.1914 15.5234C92.2539 16.2266 91.416 17.0586 90.6777 18.0195C89.1777 19.9414 88.416 21.5645 88.3926 22.8887C88.3926 23.5449 88.6328 23.873 89.1133 23.873C89.5938 23.873 90.3086 23.5566 91.2578 22.9238C92.207 22.291 93.1445 21.3887 94.0703 20.2168C95.0078 19.0449 95.7051 18.0312 96.1621 17.1758C96.6309 16.3086 96.8652 15.7227 96.8652 15.418C96.8652 15.1016 96.7832 14.9434 96.6191 14.9434ZM108.818 23.293C108.818 23.8086 109.17 24.0664 109.873 24.0664C110.248 24.0664 110.717 23.8789 111.279 23.5039C111.854 23.1289 112.369 22.7188 112.826 22.2734C114.045 21.0664 114.736 20.4629 114.9 20.4629C115.205 20.4629 115.357 20.9023 115.357 21.7812C115.357 22.6602 115.082 23.2637 114.531 23.5918C112.855 25.1035 111.561 26.0234 110.646 26.3516C110.131 26.5273 109.562 26.6094 108.941 26.5977C108.32 26.5859 107.705 26.3164 107.096 25.7891C106.486 25.2617 106.182 24.623 106.182 23.873C106.182 23.1113 106.381 22.25 106.779 21.2891C107.178 20.3281 107.582 19.5078 107.992 18.8281C108.414 18.1367 108.93 17.3398 109.539 16.4375C110.148 15.5234 110.471 14.9551 110.506 14.7324L110.471 14.6973C110.084 14.7324 109.123 15.4941 107.588 16.9824C106.064 18.4707 104.805 19.7656 103.809 20.8672C102.812 21.9688 101.623 23.4395 100.24 25.2793C99.8535 25.7832 99.5371 26.0352 99.291 26.0352C99.0449 26.0352 98.7168 25.959 98.3066 25.8066C97.8848 25.6426 97.627 25.5254 97.5332 25.4551C97.4395 25.3848 97.3926 25.2793 97.3926 25.1387C97.3926 24.998 97.4336 24.8281 97.5156 24.6289C97.5977 24.418 97.6797 24.248 97.7617 24.1191C97.832 23.9785 97.9551 23.7676 98.1309 23.4863C98.3066 23.2051 98.6523 22.6133 99.168 21.7109C99.6953 20.7969 100.498 19.4375 101.576 17.6328C102.654 15.8281 103.299 14.7383 103.51 14.3633C103.955 13.5898 104.318 13.0273 104.6 12.6758C105.127 12.0078 106.018 11.6738 107.271 11.6738C107.553 11.6738 107.693 11.8496 107.693 12.2012C107.693 12.752 107.184 13.7891 106.164 15.3125L105.426 16.4199C107.453 14.1699 109.164 12.7461 110.559 12.1484C111.238 11.8555 111.848 11.709 112.387 11.709C112.938 11.709 113.371 11.8555 113.688 12.1484C114.016 12.4414 114.18 12.7695 114.18 13.1328C114.18 13.4844 114.057 13.9121 113.811 14.416C113.564 14.9082 113.312 15.3535 113.055 15.752C112.809 16.1387 112.48 16.6309 112.07 17.2285C111.66 17.8262 111.438 18.1543 111.402 18.2129C111.367 18.2598 111.273 18.4004 111.121 18.6348C110.98 18.8574 110.875 19.0215 110.805 19.127C110.734 19.2324 110.617 19.4199 110.453 19.6895C110.289 19.9473 110.154 20.1641 110.049 20.3398C109.955 20.5156 109.832 20.7324 109.68 20.9902C109.539 21.248 109.422 21.4707 109.328 21.6582C109.246 21.8457 109.158 22.0508 109.064 22.2734C108.9 22.6836 108.818 23.0234 108.818 23.293Z" fill="#7EB693"/>
</svg>
