<svg width="144" height="28" viewBox="0 0 144 28" fill="none" xmlns="http://www.w3.org/2000/svg">
<path d="M3.86914 21.4102L3.78125 21.7793C3.78125 21.8496 3.81055 21.9141 3.86914 21.9727C3.93945 22.0312 4.02148 22.0605 4.11523 22.0605C4.20898 22.0605 4.28516 22.0137 4.34375 21.9199C6.08984 19.5996 7.53711 17.5605 8.68555 15.8027C9.83398 14.0332 10.6719 12.7324 11.1992 11.9004C11.7383 11.0684 12.166 10.4062 12.4824 9.91406C13.3262 8.625 14.1641 7.4707 14.9961 6.45117C11.832 7.24805 9.35352 7.64648 7.56055 7.64648C5.76758 7.64648 4.47852 7.53516 3.69336 7.3125C2.9082 7.07812 2.39258 6.82031 2.14648 6.53906C1.90039 6.24609 1.77734 5.95313 1.77734 5.66016C1.77734 5.35547 1.78906 5.0625 1.8125 4.78125C1.85938 4.19531 2.21094 3.71484 2.86719 3.33984C3.53516 2.96484 4.08594 2.77734 4.51953 2.77734C4.95312 2.77734 5.16992 2.8418 5.16992 2.9707C5.16992 3.09961 5.07031 3.27539 4.87109 3.49805C4.68359 3.70898 4.58984 3.85547 4.58984 3.9375C4.58984 4.3125 5.94336 4.5 8.65039 4.5C11.3574 4.5 14.4688 4.14258 17.9844 3.42773C20 1.78711 21.7402 0.966797 23.2051 0.966797C24.1777 0.966797 24.8223 1.24219 25.1387 1.79297C25.3496 2.12109 25.4551 2.44922 25.4551 2.77734C25.4551 3.10547 25.2617 3.43359 24.875 3.76172C24.5 4.08984 23.9902 4.37109 23.3457 4.60547C22.1738 5.02734 20.791 5.36133 19.1973 5.60742C18.5293 6.46289 17.5801 7.79297 16.3496 9.59766C15.1309 11.4023 14.2988 12.6211 13.8535 13.2539C13.4082 13.8867 12.6875 15.0117 11.6914 16.6289C10.707 18.2461 9.85156 19.6465 9.125 20.8301C8.39844 22.002 7.625 23.1621 6.80469 24.3105C5.12891 26.6777 3.63477 27.8613 2.32227 27.8613C1.77148 27.8613 1.29688 27.7148 0.898438 27.4219C0.5 27.1289 0.300781 26.6543 0.300781 25.998C0.300781 25.3301 0.664062 24.5039 1.39062 23.5195C2.12891 22.5234 2.66797 21.8848 3.00781 21.6035C3.34766 21.3223 3.57617 21.1816 3.69336 21.1816C3.81055 21.1816 3.86914 21.2578 3.86914 21.4102ZM28.1094 13.8516C28.1094 14.625 27.793 15.3047 27.1602 15.8906C26.5391 16.4766 25.8301 16.7695 25.0332 16.7695C24.7754 16.7695 24.6055 16.7109 24.5234 16.5938C24.4414 16.4648 24.4004 16.3008 24.4004 16.1016C24.4004 15.9023 24.4238 15.709 24.4707 15.5215C24.0488 15.6621 23.5801 15.8789 23.0645 16.1719C22.5488 16.4648 21.916 16.8984 21.166 17.4727C20.416 18.0469 20.041 18.4746 20.041 18.7559C20.041 18.8496 20.1758 18.8965 20.4453 18.8965C20.7266 18.8965 21.1543 18.8027 21.7285 18.6152C22.3027 18.416 22.7012 18.3164 22.9238 18.3164C23.1582 18.3164 23.3105 18.3281 23.3809 18.3516C23.5332 18.4336 23.6973 18.6152 23.873 18.8965C24.0488 19.166 24.1367 19.3828 24.1367 19.5469C24.1367 19.6992 23.9844 19.9043 23.6797 20.1621C23.375 20.4199 23.0293 20.6191 22.6426 20.7598C22.2559 20.8887 21.998 20.9883 21.8691 21.0586C19.3965 22.4414 18.1602 23.3906 18.1602 23.9062C18.1602 24.8203 18.9395 25.2773 20.498 25.2773C21.4941 25.2773 22.4961 24.9609 23.5039 24.3281C24.3594 23.7891 25.127 23.2441 25.8066 22.6934C26.498 22.1309 26.9316 21.7852 27.1074 21.6562C27.2949 21.5273 27.4355 21.4629 27.5293 21.4629C27.834 21.4629 27.9863 21.8027 27.9863 22.4824C27.9863 23.1621 27.9453 23.6133 27.8633 23.8359C27.7812 24.0469 27.5469 24.3105 27.1602 24.627C24.6523 26.666 22.2793 27.6855 20.041 27.6855C18.8457 27.6855 17.8906 27.5215 17.1758 27.1934C15.8633 26.5957 15.207 25.6816 15.207 24.4512C15.207 22.834 16.3262 21.6094 18.5645 20.7773C18.1191 20.5781 17.832 20.3262 17.7031 20.0215C17.5742 19.7051 17.5098 19.207 17.5098 18.5273C17.5098 17.8359 17.8262 17.1094 18.459 16.3477C19.1035 15.5742 19.8887 14.9414 20.8145 14.4492C22.877 13.3359 24.7168 12.7793 26.334 12.7793C26.7207 12.7793 27.1133 12.873 27.5117 13.0605C27.9102 13.248 28.1094 13.5117 28.1094 13.8516ZM29.375 23.4844L29.3574 23.7656C29.3574 24.0586 29.4688 24.3105 29.6914 24.5215C29.9141 24.7324 30.1191 24.8379 30.3066 24.8379C31.7129 24.8379 32.9551 24.627 34.0332 24.2051C35.123 23.7832 35.668 23.3613 35.668 22.9395C35.668 22.7402 35.4688 22.5703 35.0703 22.4297C34.6836 22.2773 34.0215 22.0957 33.084 21.8848C32.1582 21.6621 31.4844 21.4922 31.0625 21.375C30.6406 21.2461 30.3066 21.1289 30.0605 21.0234C29.8145 20.918 29.5625 20.7715 29.3047 20.584C28.7539 20.1973 28.4785 19.623 28.4785 18.8613C28.4785 18.0879 28.7598 17.3262 29.3223 16.5762C29.8965 15.8145 30.6113 15.1641 31.4668 14.625C32.3223 14.0859 33.2422 13.6113 34.2266 13.2012C36.1719 12.3926 37.8066 11.9883 39.1309 11.9883C40.4316 11.9883 41.2344 12.2695 41.5391 12.832C41.6328 13.0312 41.6797 13.2539 41.6797 13.5V13.623C41.6797 14.2441 41.5449 14.7305 41.2754 15.082C41.0176 15.4336 40.6016 15.75 40.0273 16.0312C39.4648 16.3125 39.0137 16.4531 38.6738 16.4531C38.3457 16.4531 38.1348 16.4297 38.041 16.3828C37.959 16.3359 37.8887 16.2773 37.8301 16.207C37.7715 16.125 37.6953 16.0664 37.6016 16.0312C37.5195 15.9961 37.4785 15.9082 37.4785 15.7676C37.4785 15.627 37.5371 15.4863 37.6543 15.3457C37.7715 15.1934 37.8535 15.0352 37.9004 14.8711C37.127 14.9062 36.3184 15.0879 35.4746 15.416C34.6309 15.7324 33.9043 16.0898 33.2949 16.4883C32.6973 16.8867 32.1992 17.2676 31.8008 17.6309C31.4023 17.9941 31.2031 18.2637 31.2031 18.4395C31.2031 18.6035 31.4727 18.7383 32.0117 18.8438C34.4375 19.3242 36.0312 19.7402 36.793 20.0918C37.5547 20.4434 38.082 20.8418 38.375 21.2871C38.668 21.7324 38.8145 22.1367 38.8145 22.5C38.8145 23.25 38.5156 23.959 37.918 24.627C37.3203 25.2949 36.582 25.8398 35.7031 26.2617C33.8164 27.1875 32.1699 27.6504 30.7637 27.6504C29.3691 27.6504 28.4023 27.4336 27.8633 27C27.3359 26.5781 27.0723 26.0742 27.0723 25.4883C27.0723 24.9023 27.2188 24.3633 27.5117 23.8711C27.8164 23.3672 28.2031 23.1152 28.6719 23.1152C29.1406 23.1152 29.375 23.2383 29.375 23.4844ZM52.7891 4.35938L53.5098 4.53516C53.6152 4.53516 53.709 4.58789 53.791 4.69336C53.873 4.79883 53.9141 4.89844 53.9141 4.99219C53.9141 5.08594 53.791 5.33789 53.5449 5.74805C53.2988 6.1582 53.0059 6.62695 52.666 7.1543C52.3379 7.66992 52.1621 7.95117 52.1387 7.99805C53.0527 7.92773 53.6973 7.89258 54.0723 7.89258C54.459 7.89258 54.7227 7.92188 54.8633 7.98047C55.0039 8.02734 55.1621 8.17383 55.3379 8.41992C55.5254 8.6543 55.6953 8.83594 55.8477 8.96484C56 9.08203 56.0762 9.26367 56.0762 9.50977C56.0762 9.75586 55.9238 9.9668 55.6191 10.1426C55.3262 10.3066 55.0098 10.4062 54.6699 10.4414C51.9512 10.7109 50.4512 10.8516 50.1699 10.8633C49.2207 12.3164 47.8906 14.584 46.1797 17.666C44.4805 20.7363 43.5781 22.6582 43.4727 23.4316C43.4258 23.7832 43.4023 24.0703 43.4023 24.293C43.4023 24.75 43.6426 24.9785 44.123 24.9785C44.6035 24.9785 45.1367 24.7969 45.7227 24.4336C46.3086 24.0586 46.8477 23.6543 47.3398 23.2207C48.6523 22.0488 49.3555 21.4629 49.4492 21.4629C49.7539 21.4629 49.9062 21.9902 49.9062 23.0449C49.9062 23.6191 49.6426 24.1348 49.1152 24.5918C47.9316 25.6113 46.9355 26.3789 46.127 26.8945C45.3184 27.4102 44.5098 27.668 43.7012 27.668C43.5254 27.668 43.3613 27.6504 43.209 27.6152C42.2715 27.4395 41.5801 27.0996 41.1348 26.5957C40.7012 26.0801 40.4844 25.3887 40.4844 24.5215C40.4961 23.6543 40.7539 22.6055 41.2578 21.375C41.7734 20.1328 42.418 18.8145 43.1914 17.4199C44.457 15.1465 45.7227 13.0137 46.9883 11.0215L46.3203 11.1094C44.9609 11.2617 44.1699 11.3379 43.9473 11.3379H43.7891C43.4492 11.3379 43.1211 11.2734 42.8047 11.1445C42.4883 11.0039 42.3301 10.834 42.3301 10.6348C42.3301 10.4355 42.4121 10.2422 42.5762 10.0547C42.752 9.86719 42.8574 9.7207 42.8926 9.61523C42.9746 9.35742 43.2793 9.07031 43.8066 8.75391C44.3457 8.4375 44.75 8.27344 45.0195 8.26172C45.2891 8.23828 45.5469 8.2207 45.793 8.20898C46.0508 8.19727 46.332 8.18555 46.6367 8.17383C46.9531 8.16211 47.1934 8.15039 47.3574 8.13867L48.9395 8.06836C49.9238 6.5918 50.5977 5.64258 50.9609 5.2207C51.3359 4.79883 51.5527 4.57031 51.6113 4.53516C51.6699 4.48828 51.7871 4.46484 51.9629 4.46484L52.7891 4.35938ZM59.873 7.69922C59.873 8.36719 59.5625 9.04102 58.9414 9.7207C58.3203 10.3887 57.6699 10.7227 56.9902 10.7227C56.3223 10.7227 55.9883 10.3711 55.9883 9.66797C55.9883 8.96484 56.2812 8.29688 56.8672 7.66406C57.4648 7.01953 58.1211 6.69727 58.8359 6.69727C59.1523 6.69727 59.4043 6.78516 59.5918 6.96094C59.7793 7.13672 59.873 7.38281 59.873 7.69922ZM57.0254 23.0449C57.0254 23.3965 56.9902 23.6484 56.9199 23.8008C56.3457 24.9727 55.4316 25.9219 54.1777 26.6484C52.9238 27.3633 51.834 27.7207 50.9082 27.7207C49.9824 27.7207 49.1855 27.4102 48.5176 26.7891C47.8496 26.168 47.5156 25.5352 47.5156 24.8906C47.5156 24.2461 47.8379 23.3086 48.4824 22.0781C49.127 20.8477 49.7715 19.7109 50.416 18.668C51.0605 17.625 51.3828 17.0625 51.3828 16.9805C51.3828 16.8867 51.2598 16.7109 51.0137 16.4531C50.7793 16.1953 50.6621 16.0078 50.6621 15.8906C50.6621 15.7617 50.9023 15.4395 51.3828 14.9238C51.875 14.3965 52.4668 13.8809 53.1582 13.377C53.8613 12.8613 54.3945 12.6035 54.7578 12.6035C55.1328 12.6035 55.4668 12.7676 55.7598 13.0957C56.0527 13.4238 56.1992 13.7227 56.1992 13.9922C56.1992 14.2617 54.8047 16.7988 52.0156 21.6035C51.9805 21.6738 51.8809 21.832 51.7168 22.0781C51.5645 22.3125 51.4414 22.5117 51.3477 22.6758C51.2656 22.8281 51.166 23.0156 51.0488 23.2383C50.8145 23.707 50.6973 24.0996 50.6973 24.416C50.6973 24.8145 50.9668 25.0137 51.5059 25.0137C52.0449 25.0137 52.6016 24.832 53.1758 24.4688C53.7617 24.0938 54.2656 23.6836 54.6875 23.2383C55.7891 22.0547 56.416 21.4629 56.5684 21.4629C56.873 21.4629 57.0254 21.9902 57.0254 23.0449ZM55.7422 27.1055L54.8809 27.0703H54.5645C54.4473 27.0352 54.3242 26.9648 54.1953 26.8594C54.0547 26.7539 53.9492 26.6777 53.8789 26.6309C53.8086 26.584 53.7734 26.502 53.7734 26.3848C53.7734 26.2559 53.8203 26.0391 53.9141 25.7344C56.1992 20.707 58.4082 16.6875 60.541 13.6758C60.7754 13.3477 61.1504 13.1016 61.666 12.9375C62.1934 12.7617 62.7031 12.6738 63.1953 12.6738C63.4883 12.6738 63.6348 12.9023 63.6348 13.3594C63.6348 13.4883 63.5879 13.6641 63.4941 13.8867C63.4004 14.0977 63.166 14.4492 62.791 14.9414C62.416 15.4336 61.9707 15.9961 61.4551 16.6289C60.9395 17.2617 60.6465 17.625 60.5762 17.7188C62.1816 16.0547 63.6289 14.8184 64.918 14.0098C66.2188 13.1895 67.1562 12.7793 67.7305 12.7793C68.3164 12.7793 68.7617 12.9492 69.0664 13.2891C69.3828 13.6172 69.541 13.9746 69.541 14.3613C69.541 14.7363 69.5117 15.0527 69.4531 15.3105C69.4062 15.5566 69.3125 15.8203 69.1719 16.1016C69.0312 16.3711 68.9082 16.6055 68.8027 16.8047C68.709 16.9922 68.5449 17.2441 68.3105 17.5605C68.0762 17.8652 67.9121 18.0762 67.8184 18.1934C67.7363 18.3105 67.5547 18.5332 67.2734 18.8613C67.0039 19.1895 66.8574 19.3711 66.834 19.4062C67.1621 19.0781 67.6191 18.5918 68.2051 17.9473C68.791 17.3027 69.2832 16.7637 69.6816 16.3301C70.0918 15.8965 70.6016 15.4102 71.2109 14.8711C71.8203 14.3203 72.3887 13.875 72.916 13.5352C74.1816 12.7383 75.4648 12.3398 76.7656 12.3398C77.2109 12.3398 77.5859 12.4805 77.8906 12.7617C78.1953 13.043 78.3477 13.3828 78.3477 13.7812C78.3477 14.168 77.873 15.1055 76.9238 16.5938C75.9746 18.0703 75.0254 19.5586 74.0762 21.0586C73.1387 22.5469 72.6699 23.4844 72.6699 23.8711C72.6699 24.4102 72.7695 24.7324 72.9688 24.8379C73.168 24.9316 73.4082 24.9668 73.6895 24.9434C73.9707 24.9199 74.3633 24.7383 74.8672 24.3984C75.3828 24.0586 75.8398 23.707 76.2383 23.3438C76.8828 22.7578 77.4805 22.1895 78.0312 21.6387C78.1484 21.5332 78.2773 21.4805 78.418 21.4805C78.6406 21.4805 78.7754 21.6504 78.8223 21.9902C78.8691 22.3301 78.8926 22.6816 78.8926 23.0449C78.8926 23.4082 78.8574 23.6602 78.7871 23.8008C78.4473 24.457 77.6973 25.2598 76.5371 26.209C75.377 27.1582 74.2637 27.6328 73.1973 27.6328C73.0684 27.6328 72.9746 27.627 72.916 27.6152C71.709 27.498 70.8711 27.1699 70.4023 26.6309C69.9453 26.0801 69.7168 25.4297 69.7168 24.6797C69.7168 23.9297 69.9688 23.0215 70.4727 21.9551C70.9883 20.8887 71.5508 19.9219 72.1602 19.0547C72.7695 18.1875 73.3262 17.4082 73.8301 16.7168C74.3457 16.0137 74.6035 15.6328 74.6035 15.5742C74.6035 15.5156 74.5566 15.4863 74.4629 15.4863C74.0996 15.4863 73.291 16.0723 72.0371 17.2441C69.8926 19.248 68.041 21.1816 66.4824 23.0449C66.0723 23.5371 65.0996 24.7852 63.5645 26.7891C63.3887 27.0234 63.1074 27.1406 62.7207 27.1406C62.3457 27.1406 61.9531 27.0703 61.543 26.9297C61.1328 26.7773 60.9277 26.584 60.9277 26.3496C60.9277 26.2324 61.8594 24.5918 63.7227 21.4277C65.5859 18.252 66.5176 16.5234 66.5176 16.2422C66.5176 15.9492 66.3418 15.8027 65.9902 15.8027C65.6504 15.8027 64.9414 16.3184 63.8633 17.3496C60.8984 20.1855 58.6016 23.0039 56.9727 25.8047C56.8672 25.9688 56.6621 26.2266 56.3574 26.5781C56.0527 26.9297 55.8477 27.1055 55.7422 27.1055ZM89.5801 13.6055C89.9316 13.6055 90.2891 13.7637 90.6523 14.0801C91.0273 14.3965 91.2148 14.8828 91.2148 15.5391C91.2148 16.1836 90.9863 17.0273 90.5293 18.0703C90.0723 19.1016 89.4453 20.1562 88.6484 21.2344C87.8516 22.3008 86.9727 23.3086 86.0117 24.2578C85.0625 25.1953 84.0312 25.9688 82.918 26.5781C81.8164 27.1758 80.8145 27.4746 79.9121 27.4746C79.0098 27.4746 78.2832 27.1934 77.7324 26.6309C77.1934 26.0566 76.9238 25.2656 76.9238 24.2578C76.9238 23.2383 77.1699 22.1133 77.6621 20.8828C78.166 19.6523 78.8105 18.5684 79.5957 17.6309C80.3809 16.6816 81.2305 15.832 82.1445 15.082C84.0547 13.5469 85.7305 12.7793 87.1719 12.7793C87.8164 12.7793 88.3027 12.9375 88.6309 13.2539C88.748 13.3594 88.8066 13.4531 88.8066 13.5352V13.6406C88.9707 13.6172 89.2285 13.6055 89.5801 13.6055ZM87.8047 15.9434H87.6816C87.2715 15.9434 87.0664 15.6445 87.0664 15.0469C86.2109 15.3281 85.3145 15.8203 84.377 16.5234C83.4395 17.2266 82.6016 18.0586 81.8633 19.0195C80.3633 20.9414 79.6016 22.5645 79.5781 23.8887C79.5781 24.5449 79.8184 24.873 80.2988 24.873C80.7793 24.873 81.4941 24.5566 82.4434 23.9238C83.3926 23.291 84.3301 22.3887 85.2559 21.2168C86.1934 20.0449 86.8906 19.0312 87.3477 18.1758C87.8164 17.3086 88.0508 16.7227 88.0508 16.418C88.0508 16.1016 87.9688 15.9434 87.8047 15.9434ZM100.004 24.293C100.004 24.8086 100.355 25.0664 101.059 25.0664C101.434 25.0664 101.902 24.8789 102.465 24.5039C103.039 24.1289 103.555 23.7188 104.012 23.2734C105.23 22.0664 105.922 21.4629 106.086 21.4629C106.391 21.4629 106.543 21.9023 106.543 22.7812C106.543 23.6602 106.268 24.2637 105.717 24.5918C104.041 26.1035 102.746 27.0234 101.832 27.3516C101.316 27.5273 100.748 27.6094 100.127 27.5977C99.5059 27.5859 98.8906 27.3164 98.2812 26.7891C97.6719 26.2617 97.3672 25.623 97.3672 24.873C97.3672 24.1113 97.5664 23.25 97.9648 22.2891C98.3633 21.3281 98.7676 20.5078 99.1777 19.8281C99.5996 19.1367 100.115 18.3398 100.725 17.4375C101.334 16.5234 101.656 15.9551 101.691 15.7324L101.656 15.6973C101.27 15.7324 100.309 16.4941 98.7734 17.9824C97.25 19.4707 95.9902 20.7656 94.9941 21.8672C93.998 22.9688 92.8086 24.4395 91.4258 26.2793C91.0391 26.7832 90.7227 27.0352 90.4766 27.0352C90.2305 27.0352 89.9023 26.959 89.4922 26.8066C89.0703 26.6426 88.8125 26.5254 88.7188 26.4551C88.625 26.3848 88.5781 26.2793 88.5781 26.1387C88.5781 25.998 88.6191 25.8281 88.7012 25.6289C88.7832 25.418 88.8652 25.248 88.9473 25.1191C89.0176 24.9785 89.1406 24.7676 89.3164 24.4863C89.4922 24.2051 89.8379 23.6133 90.3535 22.7109C90.8809 21.7969 91.6836 20.4375 92.7617 18.6328C93.8398 16.8281 94.4844 15.7383 94.6953 15.3633C95.1406 14.5898 95.5039 14.0273 95.7852 13.6758C96.3125 13.0078 97.2031 12.6738 98.457 12.6738C98.7383 12.6738 98.8789 12.8496 98.8789 13.2012C98.8789 13.752 98.3691 14.7891 97.3496 16.3125L96.6113 17.4199C98.6387 15.1699 100.35 13.7461 101.744 13.1484C102.424 12.8555 103.033 12.709 103.572 12.709C104.123 12.709 104.557 12.8555 104.873 13.1484C105.201 13.4414 105.365 13.7695 105.365 14.1328C105.365 14.4844 105.242 14.9121 104.996 15.416C104.75 15.9082 104.498 16.3535 104.24 16.752C103.994 17.1387 103.666 17.6309 103.256 18.2285C102.846 18.8262 102.623 19.1543 102.588 19.2129C102.553 19.2598 102.459 19.4004 102.307 19.6348C102.166 19.8574 102.061 20.0215 101.99 20.127C101.92 20.2324 101.803 20.4199 101.639 20.6895C101.475 20.9473 101.34 21.1641 101.234 21.3398C101.141 21.5156 101.018 21.7324 100.865 21.9902C100.725 22.248 100.607 22.4707 100.514 22.6582C100.432 22.8457 100.344 23.0508 100.25 23.2734C100.086 23.6836 100.004 24.0234 100.004 24.293ZM116.334 7.69922C116.334 8.36719 116.023 9.04102 115.402 9.7207C114.781 10.3887 114.131 10.7227 113.451 10.7227C112.783 10.7227 112.449 10.3711 112.449 9.66797C112.449 8.96484 112.742 8.29688 113.328 7.66406C113.926 7.01953 114.582 6.69727 115.297 6.69727C115.613 6.69727 115.865 6.78516 116.053 6.96094C116.24 7.13672 116.334 7.38281 116.334 7.69922ZM113.486 23.0449C113.486 23.3965 113.451 23.6484 113.381 23.8008C112.807 24.9727 111.893 25.9219 110.639 26.6484C109.385 27.3633 108.295 27.7207 107.369 27.7207C106.443 27.7207 105.646 27.4102 104.979 26.7891C104.311 26.168 103.977 25.5352 103.977 24.8906C103.977 24.2461 104.299 23.3086 104.943 22.0781C105.588 20.8477 106.232 19.7109 106.877 18.668C107.521 17.625 107.844 17.0625 107.844 16.9805C107.844 16.8867 107.721 16.7109 107.475 16.4531C107.24 16.1953 107.123 16.0078 107.123 15.8906C107.123 15.7617 107.363 15.4395 107.844 14.9238C108.336 14.3965 108.928 13.8809 109.619 13.377C110.322 12.8613 110.855 12.6035 111.219 12.6035C111.594 12.6035 111.928 12.7676 112.221 13.0957C112.514 13.4238 112.66 13.7227 112.66 13.9922C112.66 14.2617 111.266 16.7988 108.477 21.6035C108.441 21.6738 108.342 21.832 108.178 22.0781C108.025 22.3125 107.902 22.5117 107.809 22.6758C107.727 22.8281 107.627 23.0156 107.51 23.2383C107.275 23.707 107.158 24.0996 107.158 24.416C107.158 24.8145 107.428 25.0137 107.967 25.0137C108.506 25.0137 109.062 24.832 109.637 24.4688C110.223 24.0938 110.727 23.6836 111.148 23.2383C112.25 22.0547 112.877 21.4629 113.029 21.4629C113.334 21.4629 113.486 21.9902 113.486 23.0449ZM125.615 13.6406C126.506 13.6406 126.951 13.9453 126.951 14.5547C126.951 14.8828 126.875 15.123 126.723 15.2754C126.57 15.4277 126.242 15.9375 125.738 16.8047C125.246 17.6602 124.695 18.7617 124.086 20.1094C123.488 21.4453 123.102 22.5879 122.926 23.5371C122.891 23.6543 122.873 23.8184 122.873 24.0293C122.873 24.6738 123.049 24.9961 123.4 24.9961C123.752 24.9961 124.168 24.832 124.648 24.5039C125.129 24.1641 125.557 23.8066 125.932 23.4316C126.307 23.0449 126.67 22.6523 127.021 22.2539C127.385 21.8555 127.602 21.627 127.672 21.5684C127.742 21.5098 127.848 21.4805 127.988 21.4805C128.211 21.4805 128.346 21.6504 128.393 21.9902C128.439 22.3301 128.463 22.6816 128.463 23.0449C128.463 23.4082 128.428 23.6602 128.357 23.8008C128.018 24.4688 127.268 25.2715 126.107 26.209C124.959 27.1465 123.91 27.6152 122.961 27.6152C122.023 27.6152 121.332 27.3281 120.887 26.7539C120.441 26.1797 120.219 25.5469 120.219 24.8555C120.219 24.1523 120.336 23.5371 120.57 23.0098C119.598 24.2754 118.479 25.3477 117.213 26.2266C115.959 27.1055 114.934 27.5449 114.137 27.5449C113.34 27.5449 112.689 27.3047 112.186 26.8242C111.541 26.2266 111.219 25.4004 111.219 24.3457C111.219 23.2793 111.453 22.2129 111.922 21.1465C112.402 20.0684 113.029 19.0898 113.803 18.2109C114.576 17.3203 115.426 16.5117 116.352 15.7852C118.297 14.2617 120.09 13.5 121.73 13.5C122.363 13.5 122.879 13.6055 123.277 13.8164C123.676 14.0273 123.928 14.291 124.033 14.6074C124.314 14.1855 124.549 13.9219 124.736 13.8164C124.936 13.6992 125.229 13.6406 125.615 13.6406ZM123.277 15.5918C121.273 15.5918 119.199 16.7051 117.055 18.9316C116.293 19.7285 115.59 20.6836 114.945 21.7969C114.312 22.9102 113.996 23.6719 113.996 24.082C113.996 24.4922 114.113 24.6973 114.348 24.6973C114.676 24.6973 115.59 24.0527 117.09 22.7637C118.59 21.4629 119.586 20.5078 120.078 19.8984C120.617 19.2188 121.684 17.7832 123.277 15.5918ZM141.436 0.615234C141.998 0.615234 142.49 0.785156 142.912 1.125C143.346 1.45313 143.562 1.94531 143.562 2.60156C143.562 3.25781 143.199 4.28906 142.473 5.69531C141.746 7.08984 140.873 8.51953 139.854 9.98438C138.834 11.4375 137.68 12.9844 136.391 14.625C134.352 17.2266 132.395 19.5645 130.52 21.6387C130.508 21.7793 130.455 22.043 130.361 22.4297C130.279 22.8047 130.238 23.1855 130.238 23.5723C130.238 23.959 130.414 24.3105 130.766 24.627C131.129 24.9316 131.574 25.084 132.102 25.084C132.629 25.084 133.191 24.8965 133.789 24.5215C134.398 24.1465 134.926 23.7305 135.371 23.2734C136.543 22.0664 137.27 21.4629 137.551 21.4629C137.832 21.4629 137.973 21.8906 137.973 22.7461V23.0977C137.973 23.5547 137.891 23.8887 137.727 24.0996C136.742 25.3066 135.635 26.209 134.404 26.8066C133.174 27.3926 132.008 27.6855 130.906 27.6855C129.805 27.6855 128.967 27.3516 128.393 26.6836C127.818 26.0039 127.531 25.0781 127.531 23.9062C127.531 21.6211 128.141 18.9375 129.359 15.8555C130.59 12.7617 131.973 10.1309 133.508 7.96289C136.965 3.06445 139.607 0.615234 141.436 0.615234ZM140.645 3.5332C140.645 3.35742 140.586 3.26953 140.469 3.26953C140.059 3.26953 138.98 4.44141 137.234 6.78516C135.488 9.12891 134.223 10.998 133.438 12.3926C132.664 13.7871 131.932 15.5391 131.24 17.6484C132.623 16.0078 134.533 13.4531 136.971 9.98438C139.42 6.50391 140.645 4.35352 140.645 3.5332Z" fill="#7EB693"/>
</svg>
