<svg width="74" height="38" viewBox="0 0 74 38" fill="none" xmlns="http://www.w3.org/2000/svg">
<path d="M23.1611 3.46289C23.7822 3.46289 24.3799 3.7207 24.9541 4.23633C25.54 4.75195 25.833 5.32617 25.833 5.95898C25.833 6.5918 25.6748 7.41797 25.3584 8.4375C25.042 9.44531 24.5967 10.5234 24.0225 11.6719C23.46 12.8086 22.7686 13.9922 21.9482 15.2227C21.1396 16.4414 20.2549 17.6309 19.2939 18.791C18.3447 19.9395 17.2959 21.0352 16.1475 22.0781C15.0107 23.1094 13.8564 24.0117 12.6846 24.7852C10.1299 26.4727 7.63379 27.3164 5.19629 27.3164C4.35254 27.3164 3.60254 27.0938 2.94629 26.6484C2.29004 26.2031 1.78027 25.7637 1.41699 25.3301C0.584961 24.334 0.168945 22.957 0.168945 21.1992C0.168945 19.4297 0.749023 17.3555 1.90918 14.9766C3.08105 12.5977 4.6748 10.3535 6.69043 8.24414C8.71777 6.12305 10.9854 4.38867 13.4932 3.04102C16.001 1.68164 18.3857 1.00195 20.6475 1.00195C21.0928 1.00195 21.5146 1.10156 21.9131 1.30078C22.3115 1.5 22.5107 1.73438 22.5107 2.00391C22.5107 2.26172 22.4463 2.47852 22.3174 2.6543C22.1885 2.81836 22.0654 3 21.9482 3.19922C21.8311 3.38672 21.7314 3.52148 21.6494 3.60352C22.0361 3.50977 22.54 3.46289 23.1611 3.46289ZM16.6045 11.584C16.6045 11.8184 16.5225 11.9355 16.3584 11.9355C16.1943 11.9355 15.8545 11.6543 15.3389 11.0918C14.8232 10.5176 14.5654 10.0371 14.5654 9.65039C14.5654 8.74805 15.1689 7.72266 16.376 6.57422C17.5947 5.42578 18.9482 4.55273 20.4365 3.95508C18.7959 4.04883 16.8916 4.74609 14.7236 6.04688C12.5557 7.34766 10.6572 8.91797 9.02832 10.7578C7.39941 12.5859 6.08105 14.4961 5.07324 16.4883C4.07715 18.4805 3.5791 20.0977 3.5791 21.3398C3.5791 22.1016 3.74902 22.7578 4.08887 23.3086C4.42871 23.8477 5.00293 24.1172 5.81152 24.1172C6.63184 24.1172 7.61621 23.8359 8.76465 23.2734C9.91309 22.7109 11.0322 21.9727 12.1221 21.0586C15.8721 17.8828 18.8018 14.3555 20.9111 10.4766C21.7666 8.88281 22.1943 7.78125 22.1943 7.17188C22.1943 6.92578 22.1123 6.80273 21.9482 6.80273C21.4678 6.80273 20.7881 7.11328 19.9092 7.73438C19.0303 8.34375 18.251 9.01758 17.5713 9.75586C16.8916 10.4941 16.5518 11.0273 16.5518 11.3555L16.6045 11.584ZM20.2432 21.3398L20.1025 20.8477C20.1025 20.7539 20.1494 20.6777 20.2432 20.6191C20.3369 20.5488 20.4541 20.4141 20.5947 20.2148C20.7471 20.0156 20.8525 19.8867 20.9111 19.8281C20.9814 19.7695 21.0752 19.6875 21.1924 19.582C21.3213 19.4648 21.4268 19.3711 21.5088 19.3008C21.7432 19.1016 21.9072 18.9902 22.001 18.9668C22.0947 18.9316 22.2588 18.8789 22.4932 18.8086C23.2197 18.5742 23.835 18.4102 24.3389 18.3164C27.3271 13.3242 29.7236 9.42188 31.5283 6.60938C33.3447 3.78516 34.376 2.22656 34.6221 1.93359C34.8799 1.62891 35.3311 1.35937 35.9756 1.125C36.6201 0.890625 37.0889 0.779297 37.3818 0.791016C37.6865 0.791016 37.8389 0.919922 37.8389 1.17773C37.8389 1.2832 37.7979 1.42383 37.7158 1.59961C37.6455 1.77539 37.0068 2.8125 35.7998 4.71094C31.335 11.707 28.4756 16.2422 27.2217 18.3164L27.6611 18.4746C30.3799 17.9707 31.792 17.7188 31.8975 17.7188C32.0146 17.7188 32.2959 17.8008 32.7412 17.9648C33.1982 18.1172 33.4971 18.2051 33.6377 18.2285C33.9072 18.2754 34.042 18.498 34.042 18.8965C34.042 19.2832 33.9189 19.5 33.6729 19.5469C33.4736 19.582 32.9932 19.6992 32.2314 19.8984C31.4814 20.0859 30.8779 20.2324 30.4209 20.3379C31.042 21.0762 31.3525 21.8613 31.3525 22.6934C31.3525 23.5254 30.9834 24.627 30.2451 25.998C29.5068 27.3574 28.5635 28.7051 27.415 30.041C26.2666 31.377 25.0596 32.6367 23.7939 33.8203C22.54 35.0039 21.333 35.959 20.1729 36.6855C19.0127 37.4238 18.1572 37.793 17.6064 37.793C17.0439 37.793 16.5459 37.6406 16.1123 37.3359C15.667 37.043 15.4443 36.6035 15.4443 36.0176C15.4443 35.4316 15.5674 34.7461 15.8135 33.9609C16.0479 33.1875 16.3057 32.4727 16.5869 31.8164C16.8682 31.1719 17.3486 30.2402 18.0283 29.0215C18.7549 27.709 20.0674 25.4648 21.9658 22.2891C21.6377 22.3477 21.3857 22.377 21.21 22.377C21.0342 22.377 20.8701 22.3359 20.7178 22.2539C20.5654 22.1719 20.46 22.0664 20.4014 21.9375C20.2959 21.7031 20.2432 21.5039 20.2432 21.3398ZM25.1826 28.916C26.0615 27.8965 26.7998 26.8301 27.3975 25.7168C27.9951 24.5918 28.2939 23.6777 28.2939 22.9746C28.2939 22.2598 27.9482 21.6328 27.2568 21.0938L25.3057 21.5332C25.1064 21.8613 24.7959 22.3828 24.374 23.0977C23.9639 23.8008 23.624 24.375 23.3545 24.8203C23.0967 25.2656 22.7627 25.8398 22.3525 26.543C21.9424 27.2461 21.5967 27.8379 21.3154 28.3184C21.0459 28.7988 20.7412 29.3379 20.4014 29.9355C20.0732 30.5449 19.8037 31.0605 19.5928 31.4824C19.3701 31.916 19.1592 32.3438 18.96 32.7656C18.5732 33.5859 18.3799 34.1191 18.3799 34.3652C18.3799 34.6113 18.4443 34.7344 18.5732 34.7344C18.8076 34.7344 19.2939 34.4648 20.0322 33.9258C20.7588 33.3984 21.5791 32.6836 22.4932 31.7812C23.4189 30.8906 24.3154 29.9355 25.1826 28.916ZM33.2158 21.3398L33.0752 20.8477C33.0752 20.7539 33.1221 20.6777 33.2158 20.6191C33.3096 20.5488 33.4268 20.4141 33.5674 20.2148C33.7197 20.0156 33.8252 19.8867 33.8838 19.8281C33.9541 19.7695 34.0479 19.6875 34.165 19.582C34.2939 19.4648 34.3994 19.3711 34.4814 19.3008C34.7158 19.1016 34.8799 18.9902 34.9736 18.9668C35.0674 18.9316 35.2314 18.8789 35.4658 18.8086C36.1924 18.5742 36.8076 18.4102 37.3115 18.3164C40.2998 13.3242 42.6963 9.42188 44.501 6.60938C46.3174 3.78516 47.3486 2.22656 47.5947 1.93359C47.8525 1.62891 48.3037 1.35937 48.9482 1.125C49.5928 0.890625 50.0615 0.779297 50.3545 0.791016C50.6592 0.791016 50.8115 0.919922 50.8115 1.17773C50.8115 1.2832 50.7705 1.42383 50.6885 1.59961C50.6182 1.77539 49.9795 2.8125 48.7725 4.71094C44.3076 11.707 41.4482 16.2422 40.1943 18.3164L40.6338 18.4746C43.3525 17.9707 44.7646 17.7188 44.8701 17.7188C44.9873 17.7188 45.2686 17.8008 45.7139 17.9648C46.1709 18.1172 46.4697 18.2051 46.6104 18.2285C46.8799 18.2754 47.0146 18.498 47.0146 18.8965C47.0146 19.2832 46.8916 19.5 46.6455 19.5469C46.4463 19.582 45.9658 19.6992 45.2041 19.8984C44.4541 20.0859 43.8506 20.2324 43.3936 20.3379C44.0146 21.0762 44.3252 21.8613 44.3252 22.6934C44.3252 23.5254 43.9561 24.627 43.2178 25.998C42.4795 27.3574 41.5361 28.7051 40.3877 30.041C39.2393 31.377 38.0322 32.6367 36.7666 33.8203C35.5127 35.0039 34.3057 35.959 33.1455 36.6855C31.9854 37.4238 31.1299 37.793 30.5791 37.793C30.0166 37.793 29.5186 37.6406 29.085 37.3359C28.6396 37.043 28.417 36.6035 28.417 36.0176C28.417 35.4316 28.54 34.7461 28.7861 33.9609C29.0205 33.1875 29.2783 32.4727 29.5596 31.8164C29.8408 31.1719 30.3213 30.2402 31.001 29.0215C31.7275 27.709 33.04 25.4648 34.9385 22.2891C34.6104 22.3477 34.3584 22.377 34.1826 22.377C34.0068 22.377 33.8428 22.3359 33.6904 22.2539C33.5381 22.1719 33.4326 22.0664 33.374 21.9375C33.2686 21.7031 33.2158 21.5039 33.2158 21.3398ZM38.1553 28.916C39.0342 27.8965 39.7725 26.8301 40.3701 25.7168C40.9678 24.5918 41.2666 23.6777 41.2666 22.9746C41.2666 22.2598 40.9209 21.6328 40.2295 21.0938L38.2783 21.5332C38.0791 21.8613 37.7686 22.3828 37.3467 23.0977C36.9365 23.8008 36.5967 24.375 36.3271 24.8203C36.0693 25.2656 35.7354 25.8398 35.3252 26.543C34.915 27.2461 34.5693 27.8379 34.2881 28.3184C34.0186 28.7988 33.7139 29.3379 33.374 29.9355C33.0459 30.5449 32.7764 31.0605 32.5654 31.4824C32.3428 31.916 32.1318 32.3438 31.9326 32.7656C31.5459 33.5859 31.3525 34.1191 31.3525 34.3652C31.3525 34.6113 31.417 34.7344 31.5459 34.7344C31.7803 34.7344 32.2666 34.4648 33.0049 33.9258C33.7314 33.3984 34.5518 32.6836 35.4658 31.7812C36.3916 30.8906 37.2881 29.9355 38.1553 28.916ZM59.2666 13.8516C59.2666 14.625 58.9502 15.3047 58.3174 15.8906C57.6963 16.4766 56.9873 16.7695 56.1904 16.7695C55.9326 16.7695 55.7627 16.7109 55.6807 16.5938C55.5986 16.4648 55.5576 16.3008 55.5576 16.1016C55.5576 15.9023 55.5811 15.709 55.6279 15.5215C55.2061 15.6621 54.7373 15.8789 54.2217 16.1719C53.7061 16.4648 53.0732 16.8984 52.3232 17.4727C51.5732 18.0469 51.1982 18.4746 51.1982 18.7559C51.1982 18.8496 51.333 18.8965 51.6025 18.8965C51.8838 18.8965 52.3115 18.8027 52.8857 18.6152C53.46 18.416 53.8584 18.3164 54.0811 18.3164C54.3154 18.3164 54.4678 18.3281 54.5381 18.3516C54.6904 18.4336 54.8545 18.6152 55.0303 18.8965C55.2061 19.166 55.2939 19.3828 55.2939 19.5469C55.2939 19.6992 55.1416 19.9043 54.8369 20.1621C54.5322 20.4199 54.1865 20.6191 53.7998 20.7598C53.4131 20.8887 53.1553 20.9883 53.0264 21.0586C50.5537 22.4414 49.3174 23.3906 49.3174 23.9062C49.3174 24.8203 50.0967 25.2773 51.6553 25.2773C52.6514 25.2773 53.6533 24.9609 54.6611 24.3281C55.5166 23.7891 56.2842 23.2441 56.9639 22.6934C57.6553 22.1309 58.0889 21.7852 58.2646 21.6562C58.4521 21.5273 58.5928 21.4629 58.6865 21.4629C58.9912 21.4629 59.1436 21.8027 59.1436 22.4824C59.1436 23.1621 59.1025 23.6133 59.0205 23.8359C58.9385 24.0469 58.7041 24.3105 58.3174 24.627C55.8096 26.666 53.4365 27.6855 51.1982 27.6855C50.0029 27.6855 49.0479 27.5215 48.333 27.1934C47.0205 26.5957 46.3643 25.6816 46.3643 24.4512C46.3643 22.834 47.4834 21.6094 49.7217 20.7773C49.2764 20.5781 48.9893 20.3262 48.8604 20.0215C48.7314 19.7051 48.667 19.207 48.667 18.5273C48.667 17.8359 48.9834 17.1094 49.6162 16.3477C50.2607 15.5742 51.0459 14.9414 51.9717 14.4492C54.0342 13.3359 55.874 12.7793 57.4912 12.7793C57.8779 12.7793 58.2705 12.873 58.6689 13.0605C59.0674 13.248 59.2666 13.5117 59.2666 13.8516ZM64.3467 17.4199C67.1123 14.2793 69.4678 12.709 71.4131 12.709C71.8936 12.709 72.2861 12.8555 72.5908 13.1484C72.9072 13.4297 73.0654 13.7988 73.0654 14.2559C73.0654 14.7129 72.7373 15.4805 72.0811 16.5586C71.4365 17.625 70.8389 18.5273 70.2881 19.2656C69.9951 19.6406 69.6611 19.8281 69.2861 19.8281C68.9229 19.8281 68.6357 19.6934 68.4248 19.4238C68.2256 19.1543 68.126 18.8379 68.126 18.4746C68.126 17.666 68.5596 16.752 69.4268 15.7324L69.3916 15.6973C69.0049 15.7324 68.0439 16.4941 66.5088 17.9824C64.9854 19.4707 63.6846 20.8066 62.6064 21.9902C61.54 23.1621 60.3799 24.5918 59.126 26.2793C58.7627 26.7832 58.4521 27.0352 58.1943 27.0352C57.9482 27.0352 57.6201 26.959 57.21 26.8066C56.7881 26.6426 56.5361 26.5254 56.4541 26.4551C56.3604 26.3848 56.3135 26.2676 56.3135 26.1035C56.3135 25.9395 56.3604 25.752 56.4541 25.541C56.5479 25.3184 56.7236 25.0078 56.9814 24.6094C57.2275 24.2109 57.6025 23.5664 58.1064 22.6758C58.6221 21.7852 59.4189 20.4375 60.4971 18.6328C61.5752 16.8281 62.2197 15.7383 62.4307 15.3633C62.876 14.5898 63.2393 14.0273 63.5205 13.6758C64.0479 13.0078 64.9385 12.6738 66.1924 12.6738C66.4736 12.6738 66.6143 12.8496 66.6143 13.2012C66.6143 13.752 66.1045 14.7891 65.085 16.3125L64.3467 17.4199Z" fill="#7EB693"/>
</svg>
